<?xml version="1.0" encoding="UTF-8" standalone="no"?>
<svg
   id="Ebene_1"
   viewBox="0 0 1024 1024"
   version="1.1"
   sodipodi:docname="app-icon.svg"
   width="1024"
   height="1024"
   inkscape:version="1.2.2 (732a01da63, 2022-12-09)"
   inkscape:export-filename="app-icon.png"
   inkscape:export-xdpi="96"
   inkscape:export-ydpi="96"
   xmlns:inkscape="http://www.inkscape.org/namespaces/inkscape"
   xmlns:sodipodi="http://sodipodi.sourceforge.net/DTD/sodipodi-0.dtd"
   xmlns="http://www.w3.org/2000/svg"
   xmlns:svg="http://www.w3.org/2000/svg">
  <sodipodi:namedview
     id="namedview121"
     pagecolor="#ffffff"
     bordercolor="#000000"
     borderopacity="0.25"
     inkscape:showpageshadow="2"
     inkscape:pageopacity="0.0"
     inkscape:pagecheckerboard="true"
     inkscape:deskcolor="#d1d1d1"
     showgrid="false"
     inkscape:zoom="0.47489197"
     inkscape:cx="333.76012"
     inkscape:cy="513.80107"
     inkscape:window-width="1920"
     inkscape:window-height="1017"
     inkscape:window-x="-8"
     inkscape:window-y="-8"
     inkscape:window-maximized="1"
     inkscape:current-layer="Ebene_1" />
  <defs
     id="defs4">
    <inkscape:path-effect
       effect="fillet_chamfer"
       id="path-effect1625"
       is_visible="true"
       lpeversion="1"
       nodesatellites_param="F,0,0,1,0,100,0,1 @ F,0,0,1,0,100,0,1 @ F,0,0,1,0,100,0,1 @ F,0,0,1,0,100,0,1"
       unit="px"
       method="auto"
       mode="F"
       radius="100"
       chamfer_steps="1"
       flexible="false"
       use_knot_distance="true"
       apply_no_radius="true"
       apply_with_radius="true"
       only_selected="false"
       hide_knots="false" />
    <style
       id="style2">.cls-1{fill:#0c4a6e;}.cls-2{fill:#0f2f48;}.cls-3{fill:#065986;}.cls-4{fill:#d7c5b8;}.cls-5{fill:#29a3dd;}.cls-6{fill:none;}.cls-7{fill:#82d0f5;}.cls-8{fill:#eae5e2;}</style>
  </defs>
  <path
     style="fill:#fffffe"
     id="rect343"
     width="1024"
     height="1024"
     x="0"
     y="0"
     inkscape:path-effect="#path-effect1625"
     d="m 100,0 h 824 a 100,100 45 0 1 100,100 V 924 A 100,100 135 0 1 924,1024 H 100 A 100,100 45 0 1 0,924 V 100 A 100,100 135 0 1 100,0 Z"
     sodipodi:type="rect" />
  <g
     id="g461"
     transform="matrix(1.445257,0,0,1.445257,143.53895,61.701277)">
    <polyline
       class="cls-6"
       points="0 0 7.66 219.39 186.17 116.33"
       id="polyline6" />
    <path
       class="cls-6"
       d="M 0,0 186.17,116.33 Z"
       id="path8" />
    <polygon
       class="cls-6"
       points="103.39,179.08 186.17,116.33 0,0 7.66,219.39 "
       id="polygon10" />
    <polygon
       class="cls-6"
       points="221.79,178.03 257.41,239.73 293.03,301.43 328.66,363.12 226.35,392.05 150.15,466.19 114.53,404.49 78.9,342.79 43.28,281.09 7.66,219.39 23.9,160.49 103.39,179.08 126.12,100.29 186.17,116.33 "
       id="polygon12" />
    <polygon
       class="cls-6"
       points="61.22,38.84 37.11,64.28 3.02,72.44 0,0 "
       id="polygon14" />
    <polygon
       class="cls-6"
       points="37.11,64.28 0,0 61.22,38.84 "
       id="polygon16" />
    <polygon
       class="cls-6"
       points="61.22,38.84 37.11,64.28 103.39,179.08 186.17,116.33 "
       id="polygon18" />
    <polygon
       class="cls-6"
       points="182.67,434.55 24.3,160.26 103.39,179.08 126.12,100.29 284.87,375.24 226.35,392.05 "
       id="polygon20" />
    <polygon
       class="cls-6"
       points="24.3,160.26 103.39,179.08 226.35,392.05 182.67,434.55 "
       id="polygon22" />
    <line
       class="cls-6"
       x1="291.37"
       y1="622.82001"
       x2="198.52"
       y2="462.01001"
       id="line24" />
    <line
       class="cls-6"
       x1="300.54999"
       y1="402.41"
       x2="393.62"
       y2="563.60999"
       id="line26" />
    <line
       class="cls-6"
       x1="291.37"
       y1="622.82001"
       x2="198.52"
       y2="462.01001"
       id="line28" />
    <polygon
       class="cls-6"
       points="245.07,542.63 198.64,462.22 242.35,419.76 300.97,403.14 347.36,483.48 393.74,563.82 342.62,593.43 291.49,623.03 "
       id="polygon30" />
    <polygon
       class="cls-6"
       points="344.27,336.49 368.43,378.35 370.74,382.35 509.89,341.89 196.12,118.35 392.49,321.31 "
       id="polygon32" />
    <polyline
       class="cls-6"
       points="0 0 7.66 219.39 186.17 116.33"
       id="polyline34" />
    <path
       class="cls-6"
       d="M 0,0 186.17,116.33 Z"
       id="path36" />
    <polygon
       class="cls-6"
       points="103.39,179.08 186.17,116.33 0,0 7.66,219.39 "
       id="polygon38" />
    <polygon
       class="cls-6"
       points="221.79,178.03 257.41,239.73 293.03,301.43 328.66,363.12 226.35,392.05 150.15,466.19 114.53,404.49 78.9,342.79 43.28,281.09 7.66,219.39 23.9,160.49 103.39,179.08 126.12,100.29 186.17,116.33 "
       id="polygon40" />
    <polygon
       class="cls-6"
       points="61.22,38.84 37.11,64.28 3.02,72.44 0,0 "
       id="polygon42" />
    <polygon
       class="cls-6"
       points="37.11,64.28 0,0 61.22,38.84 "
       id="polygon44" />
    <polygon
       class="cls-6"
       points="61.22,38.84 37.11,64.28 103.39,179.08 186.17,116.33 "
       id="polygon46" />
    <polygon
       class="cls-6"
       points="182.67,434.55 24.3,160.26 103.39,179.08 126.12,100.29 284.87,375.24 226.35,392.05 "
       id="polygon48" />
    <polygon
       class="cls-6"
       points="24.3,160.26 103.39,179.08 226.35,392.05 182.67,434.55 "
       id="polygon50" />
    <line
       class="cls-6"
       x1="291.37"
       y1="622.82001"
       x2="198.52"
       y2="462.01001"
       id="line52" />
    <line
       class="cls-6"
       x1="300.54999"
       y1="402.41"
       x2="393.62"
       y2="563.60999"
       id="line54" />
    <line
       class="cls-6"
       x1="291.37"
       y1="622.82001"
       x2="198.52"
       y2="462.01001"
       id="line56" />
    <polygon
       class="cls-6"
       points="245.07,542.63 198.64,462.22 242.35,419.76 300.97,403.14 347.36,483.48 393.74,563.82 342.62,593.43 291.49,623.03 "
       id="polygon58" />
    <polygon
       class="cls-6"
       points="344.27,336.49 368.43,378.35 370.74,382.35 509.89,341.89 196.12,118.35 392.49,321.31 "
       id="polygon60" />
    <polyline
       class="cls-6"
       points="0 0 7.66 219.39 186.17 116.33"
       id="polyline62" />
    <path
       class="cls-6"
       d="M 0,0 186.17,116.33 Z"
       id="path64" />
    <polygon
       class="cls-6"
       points="103.39,179.08 186.17,116.33 0,0 7.66,219.39 "
       id="polygon66" />
    <polygon
       class="cls-6"
       points="221.79,178.03 257.41,239.73 293.03,301.43 328.66,363.12 226.35,392.05 150.15,466.19 114.53,404.49 78.9,342.79 43.28,281.09 7.66,219.39 23.9,160.49 103.39,179.08 126.12,100.29 186.17,116.33 "
       id="polygon68" />
    <polygon
       class="cls-6"
       points="61.22,38.84 37.11,64.28 3.02,72.44 0,0 "
       id="polygon70" />
    <polygon
       class="cls-6"
       points="37.11,64.28 0,0 61.22,38.84 "
       id="polygon72" />
    <polygon
       class="cls-6"
       points="61.22,38.84 37.11,64.28 103.39,179.08 186.17,116.33 "
       id="polygon74" />
    <polygon
       class="cls-6"
       points="182.67,434.55 24.3,160.26 103.39,179.08 126.12,100.29 284.87,375.24 226.35,392.05 "
       id="polygon76" />
    <polygon
       class="cls-6"
       points="24.3,160.26 103.39,179.08 226.35,392.05 182.67,434.55 "
       id="polygon78" />
    <line
       class="cls-6"
       x1="291.37"
       y1="622.82001"
       x2="198.52"
       y2="462.01001"
       id="line80" />
    <line
       class="cls-6"
       x1="300.54999"
       y1="402.41"
       x2="393.62"
       y2="563.60999"
       id="line82" />
    <line
       class="cls-6"
       x1="291.37"
       y1="622.82001"
       x2="198.52"
       y2="462.01001"
       id="line84" />
    <polygon
       class="cls-6"
       points="245.07,542.63 198.64,462.22 242.35,419.76 300.97,403.14 347.36,483.48 393.74,563.82 342.62,593.43 291.49,623.03 "
       id="polygon86" />
    <polygon
       class="cls-6"
       points="344.27,336.49 368.43,378.35 370.74,382.35 509.89,341.89 196.12,118.35 392.49,321.31 "
       id="polygon88" />
    <polyline
       class="cls-6"
       points="0 0 7.66 219.39 186.17 116.33"
       id="polyline90" />
    <path
       class="cls-6"
       d="M 0,0 186.17,116.33 Z"
       id="path92" />
    <polygon
       class="cls-4"
       points="103.39,179.08 186.17,116.33 0,0 7.66,219.39 "
       id="polygon94" />
    <polygon
       class="cls-5"
       points="221.79,178.03 257.41,239.73 293.03,301.43 328.66,363.12 226.35,392.05 150.15,466.19 114.53,404.49 78.9,342.79 43.28,281.09 7.66,219.39 23.9,160.49 103.39,179.08 126.12,100.29 186.17,116.33 "
       id="polygon96" />
    <polygon
       class="cls-2"
       points="61.22,38.84 37.11,64.28 2.53,72.56 0,0 "
       id="polygon98" />
    <polygon
       class="cls-1"
       points="37.11,64.28 0,0 61.57,38.47 "
       id="polygon100" />
    <polygon
       class="cls-8"
       points="61.57,38.47 37.11,64.28 103.39,179.08 186.17,116.33 "
       id="polygon102" />
    <polygon
       class="cls-3"
       points="182.26,434.78 23.9,160.49 103.39,179.08 126.12,100.29 393.62,563.72 334.97,580.3 "
       id="polygon104" />
    <polygon
       class="cls-2"
       points="23.9,160.49 103.39,179.08 334.97,580.3 290.94,623.14 "
       id="polygon106" />
    <line
       class="cls-6"
       x1="291.37"
       y1="622.82001"
       x2="198.52"
       y2="462.01001"
       id="line108" />
    <line
       class="cls-6"
       x1="300.54999"
       y1="402.41"
       x2="393.62"
       y2="563.60999"
       id="line110" />
    <line
       class="cls-6"
       x1="291.37"
       y1="622.82001"
       x2="198.52"
       y2="462.01001"
       id="line112" />
    <polygon
       class="cls-1"
       points="344.27,336.49 368.43,378.35 370.74,382.35 509.89,341.89 196.12,118.35 392.49,321.31 "
       id="polygon114" />
    <polygon
       class="cls-1"
       points="119.28,466.39 143.44,508.24 145.75,512.25 41.14,612.52 4.43,229.02 82.01,500.56 "
       id="polygon116" />
    <polygon
       class="cls-7"
       points="285,375.47 126.12,100.29 186.17,116.33 328.66,363.12 "
       id="polygon118" />
  </g>
</svg>
