<svg width="620" height="103" viewBox="0 0 620 103" fill="none" xmlns="http://www.w3.org/2000/svg">
<rect width="45.4546" height="77" fill="#133D57"/>
<rect x="57.4545" width="45.4546" height="77" fill="#15527A"/>
<rect x="114.909" width="45.4545" height="77" fill="#135D8A"/>
<rect x="172.364" width="45.4545" height="77" fill="#126DA6"/>
<rect x="229.818" width="45.4545" height="77" fill="#1689CC"/>
<rect x="287.273" width="45.4545" height="77" fill="#119EE2"/>
<rect x="344.727" width="45.4545" height="77" fill="#27BAFD"/>
<rect x="402.182" width="45.4545" height="77" fill="#69D0FF"/>
<rect x="459.636" width="45.4545" height="77" fill="#A6E3FF"/>
<rect x="517.091" width="45.4545" height="77" fill="#CBEFFF"/>
<rect x="574.545" width="45.4545" height="77" fill="#E8FDFF"/>
<path d="M15.7237 96.5156H17.0987C17.3097 97.5781 18.3097 98 19.2862 98C20.38 98 21.5362 97.1484 21.5362 95.5547C21.5362 94.1484 20.4659 93.2891 19.2628 93.2891C18.1612 93.2891 17.4581 93.9375 17.169 94.4609H15.9503L16.4268 88.3359H22.4503V89.5781H17.6456L17.3565 92.9922H17.4347C17.6534 92.6484 18.3956 92.0781 19.5753 92.0781C21.4347 92.0781 22.9815 93.3594 22.9815 95.5156C22.9815 97.7188 21.4503 99.2188 19.2003 99.2188C17.2315 99.2188 15.8253 98.0781 15.7237 96.5156ZM24.9581 93.875V93.4766C24.9581 90.25 26.3565 88.1172 28.7862 88.1172C31.2003 88.1172 32.5831 90.2422 32.5831 93.4766V93.875C32.5831 97.1016 31.1925 99.2188 28.7706 99.2188C26.3565 99.2188 24.9581 97.1094 24.9581 93.875ZM26.3878 93.4844V93.8594C26.3878 96.4219 27.3097 97.9766 28.7706 97.9766C30.2393 97.9766 31.1534 96.4219 31.1534 93.8594V93.4844C31.1534 90.9219 30.2393 89.3594 28.7706 89.3594C27.3097 89.3594 26.3878 90.9219 26.3878 93.4844Z" fill="black"/>
<path d="M73.0774 99H71.6555V89.875H71.5852L69.1165 91.6641V90.2188L71.6555 88.3359H73.0774V99ZM76.2337 93.875V93.4766C76.2337 90.25 77.6321 88.1172 80.0618 88.1172C82.4759 88.1172 83.8587 90.2422 83.8587 93.4766V93.875C83.8587 97.1016 82.468 99.2188 80.0462 99.2188C77.6321 99.2188 76.2337 97.1094 76.2337 93.875ZM77.6634 93.4844V93.8594C77.6634 96.4219 78.5852 97.9766 80.0462 97.9766C81.5149 97.9766 82.429 96.4219 82.429 93.8594V93.4844C82.429 90.9219 81.5149 89.3594 80.0462 89.3594C78.5852 89.3594 77.6634 90.9219 77.6634 93.4844ZM85.9837 93.875V93.4766C85.9837 90.25 87.3821 88.1172 89.8118 88.1172C92.2259 88.1172 93.6087 90.2422 93.6087 93.4766V93.875C93.6087 97.1016 92.218 99.2188 89.7962 99.2188C87.3821 99.2188 85.9837 97.1094 85.9837 93.875ZM87.4134 93.4844V93.8594C87.4134 96.4219 88.3352 97.9766 89.7962 97.9766C91.2649 97.9766 92.179 96.4219 92.179 93.8594V93.4844C92.179 90.9219 91.2649 89.3594 89.7962 89.3594C88.3352 89.3594 87.4134 90.9219 87.4134 93.4844Z" fill="black"/>
<path d="M126.744 91.3047H125.345V91.25C125.345 89.6328 126.517 88.1172 128.736 88.1172C130.751 88.1172 132.072 89.3672 132.072 91.0391C132.072 92.375 131.259 93.2734 130.259 94.4141L127.423 97.6641V97.75H132.275V99H125.384V98.0938L129.4 93.5234C129.986 92.8594 130.619 92.1172 130.619 91.1406C130.619 90.0391 129.798 89.3438 128.705 89.3438C127.462 89.3438 126.744 90.2344 126.744 91.25C126.744 91.2578 126.744 91.2969 126.744 91.3047ZM134.259 93.875V93.4766C134.259 90.25 135.658 88.1172 138.087 88.1172C140.501 88.1172 141.884 90.2422 141.884 93.4766V93.875C141.884 97.1016 140.494 99.2188 138.072 99.2188C135.658 99.2188 134.259 97.1094 134.259 93.875ZM135.689 93.4844V93.8594C135.689 96.4219 136.611 97.9766 138.072 97.9766C139.54 97.9766 140.455 96.4219 140.455 93.8594V93.4844C140.455 90.9219 139.54 89.3594 138.072 89.3594C136.611 89.3594 135.689 90.9219 135.689 93.4844ZM144.009 93.875V93.4766C144.009 90.25 145.408 88.1172 147.837 88.1172C150.251 88.1172 151.634 90.2422 151.634 93.4766V93.875C151.634 97.1016 150.244 99.2188 147.822 99.2188C145.408 99.2188 144.009 97.1094 144.009 93.875ZM145.439 93.4844V93.8594C145.439 96.4219 146.361 97.9766 147.822 97.9766C149.29 97.9766 150.205 96.4219 150.205 93.8594V93.4844C150.205 90.9219 149.29 89.3594 147.822 89.3594C146.361 89.3594 145.439 90.9219 145.439 93.4844Z" fill="black"/>
<path d="M184.613 94.1172V92.8906H185.714C186.832 92.8906 187.66 92.125 187.652 91.0703C187.652 90.0391 186.855 89.3281 185.714 89.3281C184.589 89.3281 183.847 90.0234 183.777 90.8125H182.41C182.457 89.4453 183.582 88.125 185.722 88.1172C187.754 88.1016 189.058 89.2969 189.097 90.8438C189.144 92.3516 187.933 93.25 187.129 93.3906V93.4688C188.027 93.5703 189.425 94.3125 189.457 96.0391C189.496 97.9062 187.886 99.2266 185.675 99.2266C183.55 99.2266 182.23 98.0156 182.152 96.5H183.496C183.589 97.3359 184.472 98 185.707 98.0078C187.113 98.0156 188.019 97.1797 188.004 96.0312C187.988 94.8828 187.082 94.1172 185.777 94.1172H184.613ZM191.527 93.875V93.4766C191.527 90.25 192.925 88.1172 195.355 88.1172C197.769 88.1172 199.152 90.2422 199.152 93.4766V93.875C199.152 97.1016 197.761 99.2188 195.339 99.2188C192.925 99.2188 191.527 97.1094 191.527 93.875ZM192.957 93.4844V93.8594C192.957 96.4219 193.879 97.9766 195.339 97.9766C196.808 97.9766 197.722 96.4219 197.722 93.8594V93.4844C197.722 90.9219 196.808 89.3594 195.339 89.3594C193.879 89.3594 192.957 90.9219 192.957 93.4844ZM201.277 93.875V93.4766C201.277 90.25 202.675 88.1172 205.105 88.1172C207.519 88.1172 208.902 90.2422 208.902 93.4766V93.875C208.902 97.1016 207.511 99.2188 205.089 99.2188C202.675 99.2188 201.277 97.1094 201.277 93.875ZM202.707 93.4844V93.8594C202.707 96.4219 203.629 97.9766 205.089 97.9766C206.558 97.9766 207.472 96.4219 207.472 93.8594V93.4844C207.472 90.9219 206.558 89.3594 205.089 89.3594C203.629 89.3594 202.707 90.9219 202.707 93.4844Z" fill="black"/>
<path d="M243.599 88.3359H245.724V95.5625H247.107V96.8125H245.724V99H244.349V96.8125H239.17V95.5547C240.498 93.1484 242.084 90.7422 243.599 88.3359ZM240.592 95.5625H244.349V89.5703H244.271C243.029 91.4297 241.709 93.5312 240.592 95.4922V95.5625ZM248.834 93.875V93.4766C248.834 90.25 250.232 88.1172 252.662 88.1172C255.076 88.1172 256.459 90.2422 256.459 93.4766V93.875C256.459 97.1016 255.068 99.2188 252.646 99.2188C250.232 99.2188 248.834 97.1094 248.834 93.875ZM250.264 93.4844V93.8594C250.264 96.4219 251.185 97.9766 252.646 97.9766C254.115 97.9766 255.029 96.4219 255.029 93.8594V93.4844C255.029 90.9219 254.115 89.3594 252.646 89.3594C251.185 89.3594 250.264 90.9219 250.264 93.4844ZM258.584 93.875V93.4766C258.584 90.25 259.982 88.1172 262.412 88.1172C264.826 88.1172 266.209 90.2422 266.209 93.4766V93.875C266.209 97.1016 264.818 99.2188 262.396 99.2188C259.982 99.2188 258.584 97.1094 258.584 93.875ZM260.014 93.4844V93.8594C260.014 96.4219 260.935 97.9766 262.396 97.9766C263.865 97.9766 264.779 96.4219 264.779 93.8594V93.4844C264.779 90.9219 263.865 89.3594 262.396 89.3594C260.935 89.3594 260.014 90.9219 260.014 93.4844Z" fill="black"/>
<path d="M296.758 96.5156H298.133C298.344 97.5781 299.344 98 300.32 98C301.414 98 302.57 97.1484 302.57 95.5547C302.57 94.1484 301.5 93.2891 300.297 93.2891C299.195 93.2891 298.492 93.9375 298.203 94.4609H296.984L297.461 88.3359H303.484V89.5781H298.68L298.391 92.9922H298.469C298.687 92.6484 299.43 92.0781 300.609 92.0781C302.469 92.0781 304.016 93.3594 304.016 95.5156C304.016 97.7188 302.484 99.2188 300.234 99.2188C298.266 99.2188 296.859 98.0781 296.758 96.5156ZM305.992 93.875V93.4766C305.992 90.25 307.391 88.1172 309.82 88.1172C312.234 88.1172 313.617 90.2422 313.617 93.4766V93.875C313.617 97.1016 312.227 99.2188 309.805 99.2188C307.391 99.2188 305.992 97.1094 305.992 93.875ZM307.422 93.4844V93.8594C307.422 96.4219 308.344 97.9766 309.805 97.9766C311.273 97.9766 312.187 96.4219 312.187 93.8594V93.4844C312.187 90.9219 311.273 89.3594 309.805 89.3594C308.344 89.3594 307.422 90.9219 307.422 93.4844ZM315.742 93.875V93.4766C315.742 90.25 317.141 88.1172 319.57 88.1172C321.984 88.1172 323.367 90.2422 323.367 93.4766V93.875C323.367 97.1016 321.977 99.2188 319.555 99.2188C317.141 99.2188 315.742 97.1094 315.742 93.875ZM317.172 93.4844V93.8594C317.172 96.4219 318.094 97.9766 319.555 97.9766C321.023 97.9766 321.937 96.4219 321.937 93.8594V93.4844C321.937 90.9219 321.023 89.3594 319.555 89.3594C318.094 89.3594 317.172 90.9219 317.172 93.4844Z" fill="black"/>
<path d="M361.033 90.5469H359.596C359.479 90.0547 358.908 89.3594 357.705 89.3594C356.229 89.3594 355.127 90.7656 355.127 93.7344H355.205C355.502 92.9922 356.362 92.1328 357.916 92.1328C359.572 92.1328 361.26 93.3125 361.26 95.5391C361.26 97.8828 359.674 99.2188 357.58 99.2188C356.432 99.2188 355.26 98.8203 354.51 97.6094C354.026 96.8203 353.721 95.6797 353.721 94.0859C353.721 89.9688 355.377 88.1328 357.752 88.1328C359.76 88.1328 360.947 89.3672 361.033 90.5469ZM355.322 95.6094C355.322 97.125 356.369 97.9922 357.588 97.9922C358.838 97.9922 359.846 97.2344 359.846 95.625C359.846 94.0625 358.737 93.3359 357.596 93.3359C356.276 93.3359 355.322 94.2812 355.322 95.6094ZM363.268 93.875V93.4766C363.268 90.25 364.666 88.1172 367.096 88.1172C369.51 88.1172 370.893 90.2422 370.893 93.4766V93.875C370.893 97.1016 369.502 99.2188 367.08 99.2188C364.666 99.2188 363.268 97.1094 363.268 93.875ZM364.697 93.4844V93.8594C364.697 96.4219 365.619 97.9766 367.08 97.9766C368.549 97.9766 369.463 96.4219 369.463 93.8594V93.4844C369.463 90.9219 368.549 89.3594 367.08 89.3594C365.619 89.3594 364.697 90.9219 364.697 93.4844ZM373.018 93.875V93.4766C373.018 90.25 374.416 88.1172 376.846 88.1172C379.26 88.1172 380.643 90.2422 380.643 93.4766V93.875C380.643 97.1016 379.252 99.2188 376.83 99.2188C374.416 99.2188 373.018 97.1094 373.018 93.875ZM374.447 93.4844V93.8594C374.447 96.4219 375.369 97.9766 376.83 97.9766C378.299 97.9766 379.213 96.4219 379.213 93.8594V93.4844C379.213 90.9219 378.299 89.3594 376.83 89.3594C375.369 89.3594 374.447 90.9219 374.447 93.4844Z" fill="black"/>
<path d="M411.317 88.3359H418.145V89.6328L413.778 99H412.27L416.684 89.6719V89.5859H411.317V88.3359ZM419.887 93.875V93.4766C419.887 90.25 421.285 88.1172 423.715 88.1172C426.129 88.1172 427.512 90.2422 427.512 93.4766V93.875C427.512 97.1016 426.121 99.2188 423.7 99.2188C421.285 99.2188 419.887 97.1094 419.887 93.875ZM421.317 93.4844V93.8594C421.317 96.4219 422.239 97.9766 423.7 97.9766C425.168 97.9766 426.082 96.4219 426.082 93.8594V93.4844C426.082 90.9219 425.168 89.3594 423.7 89.3594C422.239 89.3594 421.317 90.9219 421.317 93.4844ZM429.637 93.875V93.4766C429.637 90.25 431.035 88.1172 433.465 88.1172C435.879 88.1172 437.262 90.2422 437.262 93.4766V93.875C437.262 97.1016 435.871 99.2188 433.45 99.2188C431.035 99.2188 429.637 97.1094 429.637 93.875ZM431.067 93.4844V93.8594C431.067 96.4219 431.989 97.9766 433.45 97.9766C434.918 97.9766 435.832 96.4219 435.832 93.8594V93.4844C435.832 90.9219 434.918 89.3594 433.45 89.3594C431.989 89.3594 431.067 90.9219 431.067 93.4844Z" fill="black"/>
<path d="M471.764 99.2188C469.553 99.2188 467.999 97.9531 467.999 96.0938C467.999 94.4141 469.264 93.625 470.155 93.4062V93.3359C469.405 93.0859 468.42 92.3594 468.42 90.9609C468.42 89.3125 469.842 88.1172 471.803 88.1172C473.764 88.1172 475.186 89.3125 475.186 90.9609C475.186 92.3828 474.155 93.1016 473.436 93.3359V93.4062C474.342 93.625 475.592 94.4219 475.592 96.0781C475.592 97.9375 473.991 99.2188 471.764 99.2188ZM471.803 92.8594C472.96 92.8594 473.788 92.125 473.788 91.0703C473.788 90.0156 472.96 89.3125 471.803 89.3125C470.655 89.3125 469.803 90.0156 469.803 91.0703C469.803 92.125 470.655 92.8594 471.803 92.8594ZM471.803 98.0391C473.163 98.0391 474.186 97.2266 474.186 96.0312C474.186 94.8359 473.163 94.0078 471.803 94.0078C470.444 94.0078 469.405 94.8359 469.405 96.0312C469.405 97.2266 470.444 98.0391 471.803 98.0391ZM477.647 93.875V93.4766C477.647 90.25 479.045 88.1172 481.475 88.1172C483.889 88.1172 485.272 90.2422 485.272 93.4766V93.875C485.272 97.1016 483.881 99.2188 481.46 99.2188C479.045 99.2188 477.647 97.1094 477.647 93.875ZM479.077 93.4844V93.8594C479.077 96.4219 479.999 97.9766 481.46 97.9766C482.928 97.9766 483.842 96.4219 483.842 93.8594V93.4844C483.842 90.9219 482.928 89.3594 481.46 89.3594C479.999 89.3594 479.077 90.9219 479.077 93.4844ZM487.397 93.875V93.4766C487.397 90.25 488.795 88.1172 491.225 88.1172C493.639 88.1172 495.022 90.2422 495.022 93.4766V93.875C495.022 97.1016 493.631 99.2188 491.21 99.2188C488.795 99.2188 487.397 97.1094 487.397 93.875ZM488.827 93.4844V93.8594C488.827 96.4219 489.749 97.9766 491.21 97.9766C492.678 97.9766 493.592 96.4219 493.592 93.8594V93.4844C493.592 90.9219 492.678 89.3594 491.21 89.3594C489.749 89.3594 488.827 90.9219 488.827 93.4844Z" fill="black"/>
<path d="M525.462 96.9453H526.907C527.055 97.4453 527.657 97.9766 528.696 97.9766C530.665 97.9766 531.376 96.0156 531.313 93.6328H531.235C530.899 94.5156 530.032 95.2891 528.587 95.2891C526.688 95.2891 525.18 93.9531 525.18 91.7031C525.18 89.4375 526.798 88.1016 528.891 88.1016C530.751 88.1016 532.704 89.1406 532.704 93.4219C532.704 97.25 531.415 99.2031 528.665 99.2031C526.688 99.2031 525.602 98.1328 525.462 96.9453ZM531.071 91.7656C531.071 90.2031 530.087 89.3281 528.805 89.3281C527.61 89.3281 526.602 90.2031 526.602 91.7266C526.602 93.3125 527.649 94.0703 528.844 94.0703C529.985 94.0703 531.071 93.3281 531.071 91.7656ZM534.829 93.875V93.4766C534.829 90.25 536.227 88.1172 538.657 88.1172C541.071 88.1172 542.454 90.2422 542.454 93.4766V93.875C542.454 97.1016 541.063 99.2188 538.641 99.2188C536.227 99.2188 534.829 97.1094 534.829 93.875ZM536.259 93.4844V93.8594C536.259 96.4219 537.18 97.9766 538.641 97.9766C540.11 97.9766 541.024 96.4219 541.024 93.8594V93.4844C541.024 90.9219 540.11 89.3594 538.641 89.3594C537.18 89.3594 536.259 90.9219 536.259 93.4844ZM544.579 93.875V93.4766C544.579 90.25 545.977 88.1172 548.407 88.1172C550.821 88.1172 552.204 90.2422 552.204 93.4766V93.875C552.204 97.1016 550.813 99.2188 548.391 99.2188C545.977 99.2188 544.579 97.1094 544.579 93.875ZM546.009 93.4844V93.8594C546.009 96.4219 546.93 97.9766 548.391 97.9766C549.86 97.9766 550.774 96.4219 550.774 93.8594V93.4844C550.774 90.9219 549.86 89.3594 548.391 89.3594C546.93 89.3594 546.009 90.9219 546.009 93.4844Z" fill="black"/>
<path d="M582.839 96.9453H584.284C584.432 97.4453 585.034 97.9766 586.073 97.9766C588.042 97.9766 588.753 96.0156 588.69 93.6328H588.612C588.276 94.5156 587.409 95.2891 585.964 95.2891C584.065 95.2891 582.557 93.9531 582.557 91.7031C582.557 89.4375 584.175 88.1016 586.268 88.1016C588.128 88.1016 590.081 89.1406 590.081 93.4219C590.081 97.25 588.792 99.2031 586.042 99.2031C584.065 99.2031 582.979 98.1328 582.839 96.9453ZM588.448 91.7656C588.448 90.2031 587.464 89.3281 586.182 89.3281C584.987 89.3281 583.979 90.2031 583.979 91.7266C583.979 93.3125 585.026 94.0703 586.222 94.0703C587.362 94.0703 588.448 93.3281 588.448 91.7656ZM592.331 96.5156H593.706C593.917 97.5781 594.917 98 595.893 98C596.987 98 598.143 97.1484 598.143 95.5547C598.143 94.1484 597.073 93.2891 595.87 93.2891C594.768 93.2891 594.065 93.9375 593.776 94.4609H592.557L593.034 88.3359H599.057V89.5781H594.253L593.964 92.9922H594.042C594.261 92.6484 595.003 92.0781 596.182 92.0781C598.042 92.0781 599.589 93.3594 599.589 95.5156C599.589 97.7188 598.057 99.2188 595.807 99.2188C593.839 99.2188 592.432 98.0781 592.331 96.5156ZM601.565 93.875V93.4766C601.565 90.25 602.964 88.1172 605.393 88.1172C607.807 88.1172 609.19 90.2422 609.19 93.4766V93.875C609.19 97.1016 607.8 99.2188 605.378 99.2188C602.964 99.2188 601.565 97.1094 601.565 93.875ZM602.995 93.4844V93.8594C602.995 96.4219 603.917 97.9766 605.378 97.9766C606.847 97.9766 607.761 96.4219 607.761 93.8594V93.4844C607.761 90.9219 606.847 89.3594 605.378 89.3594C603.917 89.3594 602.995 90.9219 602.995 93.4844Z" fill="black"/>
</svg>
