<svg width="3239" height="1944" xmlns="http://www.w3.org/2000/svg" xmlns:xlink="http://www.w3.org/1999/xlink" xml:space="preserve" overflow="hidden"><g transform="translate(-585 -289)"><rect x="1154.5" y="647.5" width="487" height="248" stroke="#000000" stroke-width="6.875" stroke-miterlimit="8"/><text fill="#FFFFFF" font-family="Aptos,Aptos_MSFontService,sans-serif" font-weight="400" font-size="83" transform="matrix(1 0 0 1 1272.9 759)">Widget</text><text fill="#FFFFFF" font-family="Aptos,Aptos_MSFontService,sans-serif" font-weight="400" font-size="64" transform="matrix(1 0 0 1 1243.93 841)">(Authoring)</text><rect x="2587.5" y="647.5" width="436" height="248" stroke="#000000" stroke-width="6.875" stroke-miterlimit="8"/><text fill="#FFFFFF" font-family="Aptos,Aptos_MSFontService,sans-serif" font-weight="400" font-size="83" transform="matrix(1 0 0 1 2680.28 759)">Widget</text><text fill="#FFFFFF" font-family="Aptos,Aptos_MSFontService,sans-serif" font-weight="400" font-size="64" transform="matrix(1 0 0 1 2707.51 841)">(Using)</text><text font-family="Consolas,Consolas_MSFontService,sans-serif" font-weight="400" font-size="64" transform="matrix(1 0 0 1 1804.01 1334)">&lt;my</text><text font-family="Consolas,Consolas_MSFontService,sans-serif" font-weight="400" font-size="64" transform="matrix(1 0 0 1 1910.58 1334)">-</text><text font-family="Consolas,Consolas_MSFontService,sans-serif" font-weight="400" font-size="64" transform="matrix(1 0 0 1 1946.1 1334)">widget </text><text fill="#4EA72E" font-family="Consolas,Consolas_MSFontService,sans-serif" font-weight="700" font-size="64" transform="matrix(1 0 0 1 2194.74 1334)">a="…"</text><text font-family="Consolas,Consolas_MSFontService,sans-serif" font-weight="400" font-size="64" transform="matrix(1 0 0 1 2372.35 1334)">&gt;</text><text fill="#E97132" font-family="Consolas,Consolas_MSFontService,sans-serif" font-weight="700" font-size="64" transform="matrix(1 0 0 1 1875.06 1463)">&lt;other</text><text fill="#E97132" font-family="Consolas,Consolas_MSFontService,sans-serif" font-weight="700" font-size="64" transform="matrix(1 0 0 1 2088.18 1463)">-</text><text fill="#E97132" font-family="Consolas,Consolas_MSFontService,sans-serif" font-weight="700" font-size="64" transform="matrix(1 0 0 1 2123.7 1463)">widget&gt;</text><text fill="#E97132" font-family="Consolas,Consolas_MSFontService,sans-serif" font-weight="400" font-size="64" transform="matrix(1 0 0 1 2372.35 1463)">…</text><text fill="#E97132" font-family="Consolas,Consolas_MSFontService,sans-serif" font-weight="700" font-size="64" transform="matrix(1 0 0 1 1928.34 1591)">&lt;p&gt;text…&lt;/p&gt;</text><text fill="#E97132" font-family="Consolas,Consolas_MSFontService,sans-serif" font-weight="700" font-size="64" transform="matrix(1 0 0 1 2070.42 1719)">&lt;hr&gt;</text><text font-family="Consolas,Consolas_MSFontService,sans-serif" font-weight="400" font-size="64" transform="matrix(1 0 0 1 1892.82 1848)">&lt;/my</text><text font-family="Consolas,Consolas_MSFontService,sans-serif" font-weight="400" font-size="64" transform="matrix(1 0 0 1 2034.9 1848)">-</text><text font-family="Consolas,Consolas_MSFontService,sans-serif" font-weight="400" font-size="64" transform="matrix(1 0 0 1 2070.42 1848)">widget&gt;</text><path d="M1641 764.125 2552.71 764.125 2552.71 777.875 1641 777.875ZM2545.84 750.375 2587.09 771 2545.84 791.625Z"/><path d="M1212.5 989.001C1212.5 972.708 1225.71 959.5 1242 959.5L1560 959.5C1576.29 959.5 1589.5 972.708 1589.5 989.001L1589.5 1107C1589.5 1123.29 1576.29 1136.5 1560 1136.5L1242 1136.5C1225.71 1136.5 1212.5 1123.29 1212.5 1107Z" stroke="#024059" stroke-width="6.875" stroke-miterlimit="8" fill="#0F9ED5" fill-rule="evenodd"/><text fill="#FFFFFF" font-family="Aptos,Aptos_MSFontService,sans-serif" font-weight="400" font-size="64" transform="matrix(1 0 0 1 1258.36 1068)">Properties</text><path d="M1219.5 1234.83C1219.5 1212.01 1238.01 1193.5 1260.83 1193.5L1549.17 1193.5C1571.99 1193.5 1590.5 1212.01 1590.5 1234.83L1590.5 1400.17C1590.5 1422.99 1571.99 1441.5 1549.17 1441.5L1260.83 1441.5C1238.01 1441.5 1219.5 1422.99 1219.5 1400.17Z" stroke="#1C440D" stroke-width="6.875" stroke-miterlimit="8" fill="#4EA72E" fill-rule="evenodd"/><text fill="#FFFFFF" font-family="Aptos,Aptos_MSFontService,sans-serif" font-weight="400" font-size="64" transform="matrix(1 0 0 1 1267.99 1394)">Attributes</text><path d="M1252.5 1238.67C1252.5 1229.74 1259.74 1222.5 1268.67 1222.5L1538.33 1222.5C1547.26 1222.5 1554.5 1229.74 1554.5 1238.67L1554.5 1303.33C1554.5 1312.26 1547.26 1319.5 1538.33 1319.5L1268.67 1319.5C1259.74 1319.5 1252.5 1312.26 1252.5 1303.33Z" stroke="#052909" stroke-width="6.875" stroke-miterlimit="8" fill="#196B24" fill-rule="evenodd"/><text fill="#FFFFFF" font-family="Aptos,Aptos_MSFontService,sans-serif" font-weight="400" font-size="64" transform="matrix(1 0 0 1 1292.46 1291)">Options</text><text font-family="Aptos,Aptos_MSFontService,sans-serif" font-weight="700" font-size="64" transform="matrix(1 0 0 1 2038.12 859)">SAVE</text><path d="M1212.5 1544C1212.5 1521.08 1231.08 1502.5 1254 1502.5L1541 1502.5C1563.92 1502.5 1582.5 1521.08 1582.5 1544L1582.5 1710C1582.5 1732.92 1563.92 1751.5 1541 1751.5L1254 1751.5C1231.08 1751.5 1212.5 1732.92 1212.5 1710Z" stroke="#622C0F" stroke-width="6.875" stroke-miterlimit="8" fill="#E97132" fill-rule="evenodd"/><text fill="#FFFFFF" font-family="Aptos,Aptos_MSFontService,sans-serif" font-weight="400" font-size="64" transform="matrix(1 0 0 1 1283.81 1647)">Content</text><path d="M2616.5 988C2616.5 971.708 2629.71 958.5 2646 958.5L2965 958.5C2981.29 958.5 2994.5 971.708 2994.5 988L2994.5 1106C2994.5 1122.29 2981.29 1135.5 2965 1135.5L2646 1135.5C2629.71 1135.5 2616.5 1122.29 2616.5 1106Z" stroke="#024059" stroke-width="6.875" stroke-miterlimit="8" fill="#0F9ED5" fill-rule="evenodd"/><text fill="#FFFFFF" font-family="Aptos,Aptos_MSFontService,sans-serif" font-weight="400" font-size="64" transform="matrix(1 0 0 1 2662.68 1067)">Properties</text><g><g><g><path d="M109.645 68.5129 0 0 4.51138 129.21 60.8918 105.47 109.645 68.5129Z" fill="#D7C5B8" transform="matrix(1.00188 0 0 1 607.066 1109)"/><path d="M109.645 68.5129 130.624 104.851 151.602 141.19 172.581 177.528 193.565 213.861 133.31 230.899 88.4313 274.564 67.4528 238.226 46.4684 201.887 25.4899 165.549 4.51138 129.21 14.076 94.5211 60.8918 105.47 74.2787 59.0661 109.645 68.5129Z" fill="#29A3DD" transform="matrix(1.00188 0 0 1 607.066 1109)"/><path d="M21.856 37.8579 1.49005 42.7344 0 0 36.0557 22.8749 21.856 37.8579Z" fill="#0F2F48" transform="matrix(1.00188 0 0 1 607.066 1109)"/><path d="M21.856 37.8579 0 0 36.2618 22.657 21.856 37.8579Z" fill="#0C4A6E" transform="matrix(1.00188 0 0 1 607.066 1109)"/><path d="M21.856 37.8579 60.8918 105.47 109.645 68.5129 36.2618 22.657 21.856 37.8579Z" fill="#EAE5E2" transform="matrix(1.00188 0 0 1 607.066 1109)"/><path d="M74.2787 59.0661 231.824 332.005 197.282 341.769 107.343 256.065 14.076 94.5211 60.8918 105.47 74.2787 59.0661Z" fill="#065986" transform="matrix(1.00188 0 0 1 607.066 1109)"/><path d="M60.8918 105.47 197.282 341.769 171.35 367 14.076 94.5211 60.8918 105.47Z" fill="#0F2F48" transform="matrix(1.00188 0 0 1 607.066 1109)"/><path d="M300.301 201.357 115.505 69.7026 231.158 189.236 202.759 198.177 216.988 222.83 218.348 225.186 300.301 201.357Z" fill="#0C4A6E" transform="matrix(1.00188 0 0 1 607.066 1109)"/><path d="M24.2295 360.745 2.60906 134.882 48.3 294.806 70.2503 274.682 84.4794 299.329 85.8399 301.691 24.2295 360.745Z" fill="#0C4A6E" transform="matrix(1.00188 0 0 1 607.066 1109)"/><path d="M74.2787 59.0661 109.645 68.5129 193.565 213.861 167.852 221.134 74.2787 59.0661Z" fill="#82D0F5" transform="matrix(1.00188 0 0 1 607.066 1109)"/></g></g></g><path d="M2616.5 1234.83C2616.5 1212.01 2635.01 1193.5 2657.83 1193.5L2953.17 1193.5C2975.99 1193.5 2994.5 1212.01 2994.5 1234.83L2994.5 1400.17C2994.5 1422.99 2975.99 1441.5 2953.17 1441.5L2657.83 1441.5C2635.01 1441.5 2616.5 1422.99 2616.5 1400.17Z" stroke="#1C440D" stroke-width="6.875" stroke-miterlimit="8" fill="#4EA72E" fill-rule="evenodd"/><text fill="#FFFFFF" font-family="Aptos,Aptos_MSFontService,sans-serif" font-weight="400" font-size="64" transform="matrix(1 0 0 1 2668.43 1337)">Attributes</text><path d="M2616.5 1542C2616.5 1519.08 2635.08 1500.5 2658 1500.5L2953 1500.5C2975.92 1500.5 2994.5 1519.08 2994.5 1542L2994.5 1708C2994.5 1730.92 2975.92 1749.5 2953 1749.5L2658 1749.5C2635.08 1749.5 2616.5 1730.92 2616.5 1708Z" stroke="#622C0F" stroke-width="6.875" stroke-miterlimit="8" fill="#E97132" fill-rule="evenodd"/><text fill="#FFFFFF" font-family="Aptos,Aptos_MSFontService,sans-serif" font-weight="400" font-size="64" transform="matrix(1 0 0 1 2691.89 1645)">Content</text><rect x="1154.5" y="1804.5" width="487" height="70.0001" stroke="#000000" stroke-width="6.875" stroke-miterlimit="8"/><rect x="2587.5" y="1804.5" width="436" height="70.0001" stroke="#000000" stroke-width="6.875" stroke-miterlimit="8"/><path d="M917.5 1260.19 1201.21 1260.19 1201.21 1280.81 917.5 1280.81ZM1190.9 1239.56 1252.77 1270.5 1190.9 1301.44Z" fill="#156082"/><text fill="#156082" font-family="Aptos,Aptos_MSFontService,sans-serif" font-weight="400" font-size="55" transform="matrix(1 0 0 1 1051.97 1465)">edit</text><text fill="#156082" font-family="Aptos,Aptos_MSFontService,sans-serif" font-weight="400" font-size="55" transform="matrix(1 0 0 1 928.685 1235)">set option</text><path d="M924.215 1366.67 1179.99 1586.11 1166.56 1601.76 910.785 1382.33ZM1185.59 1563.74 1212.41 1627.51 1145.3 1610.7Z" fill="#156082"/><path d="M917.5 1364.19 1160.84 1364.19 1160.84 1384.81 917.5 1384.81ZM1150.53 1343.56 1212.41 1374.5 1150.53 1405.44Z" fill="#156082"/><path d="M1590 1310.12 1603.75 1310.12 1603.75 1323.87 1590 1323.87ZM1617.5 1310.12 1631.25 1310.12 1631.25 1323.88 1617.5 1323.87ZM1645 1310.12 1658.75 1310.12 1658.75 1323.88 1645 1323.88ZM1672.5 1310.12 1686.25 1310.12 1686.25 1323.88 1672.5 1323.88ZM1700 1310.13 1713.75 1310.13 1713.75 1323.88 1700 1323.88ZM1727.5 1310.13 1741.25 1310.13 1741.25 1323.88 1727.5 1323.88ZM1755 1310.13 1760.39 1310.13 1760.39 1323.88 1755 1323.88ZM1753.52 1296.38 1794.77 1317 1753.52 1337.63Z" fill="#4EA72E"/><path d="M2439 1310.12 2452.75 1310.12 2452.75 1323.87 2439 1323.87ZM2466.5 1310.12 2480.25 1310.12 2480.25 1323.88 2466.5 1323.87ZM2494 1310.12 2507.75 1310.12 2507.75 1323.88 2494 1323.88ZM2521.5 1310.12 2535.25 1310.13 2535.25 1323.88 2521.5 1323.88ZM2549 1310.13 2562.75 1310.13 2562.75 1323.88 2549 1323.88ZM2576.5 1310.13 2581.67 1310.13 2581.67 1323.88 2576.5 1323.88ZM2574.8 1296.38 2616.05 1317 2574.8 1337.63Z" fill="#4EA72E"/><path d="M1582 1620.12 1595.75 1620.12 1595.75 1633.88 1582 1633.88ZM1609.5 1620.12 1623.25 1620.13 1623.25 1633.88 1609.5 1633.88ZM1637 1620.13 1650.75 1620.13 1650.75 1633.88 1637 1633.88ZM1664.5 1620.13 1678.25 1620.13 1678.25 1633.88 1664.5 1633.88ZM1692 1620.13 1705.75 1620.13 1705.75 1633.88 1692 1633.88ZM1719.5 1620.13 1733.25 1620.13 1733.25 1633.88 1719.5 1633.88ZM1747 1620.13 1760.02 1620.13 1760.02 1633.88 1747 1633.88ZM1753.15 1606.38 1794.4 1627 1753.15 1647.63Z" fill="#E97132"/><path d="M2443 1617.12 2456.75 1617.12 2456.75 1630.87 2443 1630.87ZM2470.5 1617.12 2484.25 1617.12 2484.25 1630.88 2470.5 1630.87ZM2498 1617.12 2511.75 1617.12 2511.75 1630.88 2498 1630.88ZM2525.5 1617.12 2539.25 1617.13 2539.25 1630.88 2525.5 1630.88ZM2553 1617.13 2566.75 1617.13 2566.75 1630.88 2553 1630.88ZM2580.5 1617.13 2581.86 1617.13 2581.86 1630.88 2580.5 1630.88ZM2574.98 1603.38 2616.23 1624 2574.98 1644.63Z" fill="#E97132"/><text fill="#156082" font-family="Aptos,Aptos_MSFontService,sans-serif" font-weight="700" font-size="55" transform="matrix(1 0 0 1 618.18 1555)">WebWriter</text><rect x="3026.5" y="647.5" width="70.0002" height="1227" stroke="#000000" stroke-width="6.875" stroke-miterlimit="8"/><g><g><g><path d="M3639.83 1431.5C3668 1396.83 3699.2 1353.07 3702.23 1303.67L3754.23 1303.67C3750.33 1368.23 3702.23 1420.67 3639.83 1431.5ZM3477.77 1303.67 3529.77 1303.67C3533.23 1353.07 3564 1396.83 3592.17 1431.5 3529.77 1420.67 3481.67 1368.23 3477.77 1303.67ZM3592.17 1158.5C3564 1193.17 3532.8 1236.93 3529.77 1286.33L3477.77 1286.33C3481.67 1221.77 3529.77 1169.33 3592.17 1158.5ZM3624.67 1303.67 3684.9 1303.67C3681.43 1348.3 3652.4 1388.6 3624.67 1422.83L3624.67 1303.67ZM3607.33 1303.67 3607.33 1422.83C3579.6 1388.6 3550.57 1348.3 3547.1 1303.67L3607.33 1303.67ZM3624.67 1167.17C3652.4 1201.4 3681.43 1241.27 3684.9 1286.33L3624.67 1286.33 3624.67 1167.17ZM3607.33 1286.33 3547.1 1286.33C3550.57 1241.7 3579.6 1201.4 3607.33 1167.17L3607.33 1286.33ZM3754.23 1286.33 3702.23 1286.33C3699.2 1236.93 3668 1193.17 3639.83 1158.5 3702.23 1169.33 3750.33 1221.77 3754.23 1286.33ZM3616 1130.33C3525 1130.33 3451.33 1204 3451.33 1295 3451.33 1386 3525 1459.67 3616 1459.67 3707 1459.67 3780.67 1386 3780.67 1295 3780.67 1204 3707 1130.33 3616 1130.33Z"/></g></g></g><g><g><g><path d="M52.0625 36.75 61.2501 36.75 61.2501 59.7188 52.0625 59.7188Z" transform="matrix(1 0 0 1.0068 2032 614)"/><path d="M101.063 65.8438 45.9375 65.8438 45.9375 30.625 101.063 30.625 101.063 65.8438ZM73.5001 105.656C65.0782 105.656 58.1875 98.7657 58.1875 90.3438 58.1875 81.9219 65.0782 75.0313 73.5001 75.0313 81.9219 75.0313 88.8126 81.9219 88.8126 90.3438 88.8126 98.7657 81.9219 105.656 73.5001 105.656ZM119.438 21.4375 101.063 21.4375 45.9375 21.4375 36.75 21.4375 21.4375 36.75 21.4375 119.438C21.4375 122.806 24.1938 125.563 27.5625 125.563L119.438 125.563C122.806 125.563 125.563 122.806 125.563 119.438L125.563 27.5625C125.563 24.1938 122.806 21.4375 119.438 21.4375Z" transform="matrix(1 0 0 1.0068 2032 614)"/><path d="M68.9063 85.7501 78.0938 85.7501 78.0938 94.9376 68.9063 94.9376Z" transform="matrix(1 0 0 1.0068 2032 614)"/></g></g></g><path d="M3148.06 1282.19 3380.21 1282.19 3380.21 1302.81 3148.06 1302.81ZM3158.38 1323.44 3096.5 1292.5 3158.38 1261.56ZM3369.9 1261.56 3431.77 1292.5 3369.9 1323.44Z"/><text font-family="Aptos,Aptos_MSFontService,sans-serif" font-weight="400" font-size="55" transform="matrix(1 0 0 1 3170.77 1255)">interact</text><text font-family="Aptos,Aptos_MSFontService,sans-serif" font-weight="700" font-size="55" transform="matrix(1 0 0 1 3512.39 1555)">Browser</text><text font-family="Consolas,Consolas_MSFontService,sans-serif" font-weight="700" font-size="220" transform="matrix(1 0 0 1 1325.88 563)">…</text><text font-family="Consolas,Consolas_MSFontService,sans-serif" font-weight="700" font-size="220" transform="matrix(-1 1.22465e-16 -1.22465e-16 -1 1450.74 1959)">…</text><text font-family="Consolas,Consolas_MSFontService,sans-serif" font-weight="700" font-size="220" transform="matrix(1 0 0 1 2759 567)">…</text><text font-family="Consolas,Consolas_MSFontService,sans-serif" font-weight="700" font-size="220" transform="matrix(-1 1.22465e-16 -1.22465e-16 -1 2896.37 1959)">…</text></g></svg>