<svg width="4112" height="2495" xmlns="http://www.w3.org/2000/svg" xmlns:xlink="http://www.w3.org/1999/xlink" xml:space="preserve" overflow="hidden"><g transform="translate(-84 13)"><rect x="2398" y="1950" width="788" height="213" fill="#FFF2CC"/><rect x="2398" y="483" width="794" height="284" fill="#DAE3F3"/><rect x="1890" y="811" width="460" height="1094" fill="#FBE5D6"/><path d="M2503.5 639.5C2503.5 595.87 2560.14 560.5 2630 560.5 2672.17 560.5 2714.33 560.5 2756.5 560.5 2756.5 586.833 2756.5 613.167 2756.5 639.5 2756.5 683.13 2699.86 718.5 2630 718.5 2560.14 718.5 2503.5 683.13 2503.5 639.5Z" stroke="#223F59" stroke-width="4.58333" stroke-miterlimit="8" fill="#5B9BD5" fill-rule="evenodd"/><text fill="#FFFFFF" font-family="Calibri,Calibri_MSFontService,sans-serif" font-weight="400" font-size="55" transform="matrix(1 0 0 1 2551.77 657)">Theme</text><path d="M3395 0 3395 2475" stroke="#7F7F7F" stroke-width="13.75" stroke-miterlimit="8" stroke-dasharray="13.75 13.75" fill="none" fill-rule="evenodd"/><path d="M1989.5 962.5 2242.5 962.5 2242.5 1089.21C2116 1089.21 2116 1137.49 1989.5 1110.05Z" stroke="#64310F" stroke-width="4.58333" stroke-miterlimit="8" fill="#ED7D31" fill-rule="evenodd"/><text fill="#FFFFFF" font-family="Calibri,Calibri_MSFontService,sans-serif" font-weight="400" font-size="55" transform="matrix(1 0 0 1 2030.74 1043)">Snippet</text><text font-family="Calibri,Calibri_MSFontService,sans-serif" font-weight="700" font-size="101" transform="matrix(1 0 0 1 434.975 173)">Development</text><text font-family="Calibri,Calibri_MSFontService,sans-serif" font-weight="400" font-size="64" transform="matrix(1 0 0 1 434.975 260)">of Package</text><text font-family="Calibri,Calibri_MSFontService,sans-serif" font-weight="700" font-size="101" transform="matrix(1 0 0 1 2155.89 173)">Authoring</text><text font-family="Calibri,Calibri_MSFontService,sans-serif" font-weight="400" font-size="64" transform="matrix(1 0 0 1 2155.89 260)">of Explorable</text><text font-family="Calibri,Calibri_MSFontService,sans-serif" font-weight="700" font-size="101" transform="matrix(1 0 0 1 3813.2 173)">Usage</text><text font-family="Calibri,Calibri_MSFontService,sans-serif" font-weight="400" font-size="64" transform="matrix(1 0 0 1 3813.2 260)">of Explorable</text><path d="M190.263 2165.5C195.102 2165.5 199.026 2161.58 199.026 2156.74L190.263 2156.74C192.683 2156.74 194.644 2154.78 194.644 2152.36 194.644 2149.94 192.683 2147.97 190.263 2147.97L199.026 2147.97 199.026 1890.26C199.026 1885.42 202.949 1881.5 207.788 1881.5L468.737 1881.5C473.577 1881.5 477.5 1885.42 477.5 1890.26 477.5 1895.1 473.577 1899.03 468.737 1899.03L459.974 1899.03 459.974 2156.74C459.974 2161.58 456.051 2165.5 451.212 2165.5ZM216.551 1890.26C216.551 1895.1 212.628 1899.03 207.788 1899.03 205.369 1899.03 203.407 1897.06 203.407 1894.64 203.407 1892.22 205.369 1890.26 207.788 1890.26Z" fill="#70AD47" fill-rule="evenodd"/><path d="M216.551 1890.26C216.551 1895.1 212.628 1899.03 207.788 1899.03 205.369 1899.03 203.407 1897.06 203.407 1894.64 203.407 1892.22 205.369 1890.26 207.788 1890.26ZM199.026 2156.74C199.026 2161.58 195.102 2165.5 190.263 2165.5 185.423 2165.5 181.5 2161.58 181.5 2156.74 181.5 2151.9 185.423 2147.97 190.263 2147.97 192.683 2147.97 194.644 2149.94 194.644 2152.36 194.644 2154.78 192.683 2156.74 190.263 2156.74Z" fill="#5A8B39" fill-rule="evenodd"/><path d="M199.026 2147.97 199.026 1890.26C199.026 1885.42 202.949 1881.5 207.788 1881.5L468.737 1881.5C473.577 1881.5 477.5 1885.42 477.5 1890.26 477.5 1895.1 473.577 1899.03 468.737 1899.03L459.974 1899.03 459.974 2156.74C459.974 2161.58 456.051 2165.5 451.212 2165.5L190.263 2165.5C185.423 2165.5 181.5 2161.58 181.5 2156.74 181.5 2151.9 185.423 2147.97 190.263 2147.97ZM207.788 1881.5C212.628 1881.5 216.551 1885.42 216.551 1890.26 216.551 1895.1 212.628 1899.03 207.788 1899.03 205.369 1899.03 203.407 1897.06 203.407 1894.64 203.407 1892.22 205.369 1890.26 207.788 1890.26L216.551 1890.26M459.974 1899.03 207.788 1899.03M190.263 2147.97C192.683 2147.97 194.644 2149.94 194.644 2152.36 194.644 2154.78 192.683 2156.74 190.263 2156.74L199.026 2156.74M190.263 2165.5C195.102 2165.5 199.026 2161.58 199.026 2156.74L199.026 2147.97" stroke="#2B4719" stroke-width="4.58333" stroke-miterlimit="8" fill="none" fill-rule="evenodd"/><text fill="#FFFFFF" font-family="Consolas,Consolas_MSFontService,sans-serif" font-weight="400" font-size="50" transform="matrix(1 0 0 1 231.682 2015)">.js</text><text fill="#FFFFFF" font-family="Consolas,Consolas_MSFontService,sans-serif" font-weight="400" font-size="50" transform="matrix(1 0 0 1 231.682 2075)">.ts</text><rect x="402.5" y="1944.5" width="240" height="158" stroke="#2B4719" stroke-width="4.58333" stroke-miterlimit="8" fill="#70AD47"/><text fill="#FFFFFF" font-family="Calibri,Calibri_MSFontService,sans-serif" font-weight="400" font-size="55" transform="matrix(1 0 0 1 441.823 2041)">Widget</text><path d="M190.263 1472.5C195.102 1472.5 199.026 1468.58 199.026 1463.74L190.263 1463.74C192.683 1463.74 194.644 1461.78 194.644 1459.36 194.644 1456.94 192.683 1454.97 190.263 1454.97L199.026 1454.97 199.026 1197.26C199.026 1192.42 202.949 1188.5 207.788 1188.5L468.737 1188.5C473.577 1188.5 477.5 1192.42 477.5 1197.26 477.5 1202.1 473.577 1206.03 468.737 1206.03L459.974 1206.03 459.974 1463.74C459.974 1468.58 456.051 1472.5 451.212 1472.5ZM216.551 1197.26C216.551 1202.1 212.628 1206.03 207.788 1206.03 205.369 1206.03 203.407 1204.06 203.407 1201.64 203.407 1199.22 205.369 1197.26 207.788 1197.26Z" fill="#ED7D31" fill-rule="evenodd"/><path d="M216.551 1197.26C216.551 1202.1 212.628 1206.03 207.788 1206.03 205.369 1206.03 203.407 1204.06 203.407 1201.64 203.407 1199.22 205.369 1197.26 207.788 1197.26ZM199.026 1463.74C199.026 1468.58 195.102 1472.5 190.263 1472.5 185.423 1472.5 181.5 1468.58 181.5 1463.74 181.5 1458.9 185.423 1454.97 190.263 1454.97 192.683 1454.97 194.644 1456.94 194.644 1459.36 194.644 1461.78 192.683 1463.74 190.263 1463.74Z" fill="#BF6427" fill-rule="evenodd"/><path d="M199.026 1454.97 199.026 1197.26C199.026 1192.42 202.949 1188.5 207.788 1188.5L468.737 1188.5C473.577 1188.5 477.5 1192.42 477.5 1197.26 477.5 1202.1 473.577 1206.03 468.737 1206.03L459.974 1206.03 459.974 1463.74C459.974 1468.58 456.051 1472.5 451.212 1472.5L190.263 1472.5C185.423 1472.5 181.5 1468.58 181.5 1463.74 181.5 1458.9 185.423 1454.97 190.263 1454.97ZM207.788 1188.5C212.628 1188.5 216.551 1192.42 216.551 1197.26 216.551 1202.1 212.628 1206.03 207.788 1206.03 205.369 1206.03 203.407 1204.06 203.407 1201.64 203.407 1199.22 205.369 1197.26 207.788 1197.26L216.551 1197.26M459.974 1206.03 207.788 1206.03M190.263 1454.97C192.683 1454.97 194.644 1456.94 194.644 1459.36 194.644 1461.78 192.683 1463.74 190.263 1463.74L199.026 1463.74M190.263 1472.5C195.102 1472.5 199.026 1468.58 199.026 1463.74L199.026 1454.97" stroke="#64310F" stroke-width="4.58333" stroke-miterlimit="8" fill="none" fill-rule="evenodd"/><text fill="#FFFFFF" font-family="Consolas,Consolas_MSFontService,sans-serif" font-weight="400" font-size="50" transform="matrix(1 0 0 1 231.682 1352)">.html</text><path d="M389.5 1251.5 642.5 1251.5 642.5 1378.21C516 1378.21 516 1426.48 389.5 1399.05Z" stroke="#64310F" stroke-width="4.58333" stroke-miterlimit="8" fill="#ED7D31" fill-rule="evenodd"/><text fill="#FFFFFF" font-family="Calibri,Calibri_MSFontService,sans-serif" font-weight="400" font-size="55" transform="matrix(1 0 0 1 431.078 1332)">Snippet</text><path d="M190.263 688.5C195.102 688.5 199.026 684.577 199.026 679.738L190.263 679.738C192.683 679.738 194.644 677.776 194.644 675.356 194.644 672.936 192.683 670.975 190.263 670.975L199.026 670.975 199.026 413.263C199.026 408.423 202.949 404.5 207.788 404.5L468.737 404.5C473.577 404.5 477.5 408.423 477.5 413.263 477.5 418.102 473.577 422.026 468.737 422.026L459.974 422.026 459.974 679.738C459.974 684.577 456.051 688.5 451.212 688.5ZM216.551 413.263C216.551 418.102 212.628 422.026 207.788 422.026 205.369 422.026 203.407 420.064 203.407 417.644 203.407 415.225 205.369 413.263 207.788 413.263Z" fill="#5B9BD5" fill-rule="evenodd"/><path d="M216.551 413.263C216.551 418.102 212.628 422.026 207.788 422.026 205.369 422.026 203.407 420.064 203.407 417.644 203.407 415.225 205.369 413.263 207.788 413.263ZM199.026 679.738C199.026 684.577 195.102 688.5 190.263 688.5 185.423 688.5 181.5 684.577 181.5 679.738 181.5 674.898 185.423 670.975 190.263 670.975 192.683 670.975 194.644 672.936 194.644 675.356 194.644 677.776 192.683 679.738 190.263 679.738Z" fill="#497DAB" fill-rule="evenodd"/><path d="M199.026 670.975 199.026 413.263C199.026 408.423 202.949 404.5 207.788 404.5L468.737 404.5C473.577 404.5 477.5 408.423 477.5 413.263 477.5 418.102 473.577 422.026 468.737 422.026L459.974 422.026 459.974 679.738C459.974 684.577 456.051 688.5 451.212 688.5L190.263 688.5C185.423 688.5 181.5 684.577 181.5 679.738 181.5 674.898 185.423 670.975 190.263 670.975ZM207.788 404.5C212.628 404.5 216.551 408.423 216.551 413.263 216.551 418.102 212.628 422.026 207.788 422.026 205.369 422.026 203.407 420.064 203.407 417.644 203.407 415.225 205.369 413.263 207.788 413.263L216.551 413.263M459.974 422.026 207.788 422.026M190.263 670.975C192.683 670.975 194.644 672.936 194.644 675.356 194.644 677.776 192.683 679.738 190.263 679.738L199.026 679.738M190.263 688.5C195.102 688.5 199.026 684.577 199.026 679.738L199.026 670.975" stroke="#223F59" stroke-width="4.58333" stroke-miterlimit="8" fill="none" fill-rule="evenodd"/><text fill="#FFFFFF" font-family="Consolas,Consolas_MSFontService,sans-serif" font-weight="400" font-size="50" transform="matrix(1 0 0 1 231.682 568)">.css</text><path d="M389.5 563.5C389.5 519.869 446.136 484.5 516 484.5 558.167 484.5 600.333 484.5 642.5 484.5 642.5 510.833 642.5 537.167 642.5 563.5 642.5 607.13 585.864 642.5 516 642.5 446.136 642.5 389.5 607.13 389.5 563.5Z" stroke="#223F59" stroke-width="4.58333" stroke-miterlimit="8" fill="#5B9BD5" fill-rule="evenodd"/><text fill="#FFFFFF" font-family="Calibri,Calibri_MSFontService,sans-serif" font-weight="400" font-size="55" transform="matrix(1 0 0 1 438.377 581)">Theme</text><path d="M1136.66 2163.5C1141.73 2163.5 1145.83 2159.4 1145.83 2154.34L1136.66 2154.34C1139.2 2154.34 1141.25 2152.28 1141.25 2149.75 1141.25 2147.22 1139.2 2145.17 1136.66 2145.17L1145.83 2145.17 1145.83 413.664C1145.83 408.603 1149.93 404.5 1154.99 404.5L1415.34 404.5C1420.4 404.5 1424.5 408.603 1424.5 413.664 1424.5 418.726 1420.4 422.829 1415.34 422.829L1406.17 422.829 1406.17 2154.34C1406.17 2159.4 1402.07 2163.5 1397.01 2163.5ZM1164.16 413.664C1164.16 418.726 1160.05 422.829 1154.99 422.829 1152.46 422.829 1150.41 420.777 1150.41 418.247 1150.41 415.716 1152.46 413.664 1154.99 413.664Z" fill="#A5A5A5" fill-rule="evenodd"/><path d="M1164.16 413.664C1164.16 418.726 1160.05 422.829 1154.99 422.829 1152.46 422.829 1150.41 420.777 1150.41 418.247 1150.41 415.716 1152.46 413.664 1154.99 413.664ZM1145.83 2154.34C1145.83 2159.4 1141.73 2163.5 1136.66 2163.5 1131.6 2163.5 1127.5 2159.4 1127.5 2154.34 1127.5 2149.27 1131.6 2145.17 1136.66 2145.17 1139.2 2145.17 1141.25 2147.22 1141.25 2149.75 1141.25 2152.28 1139.2 2154.34 1136.66 2154.34Z" fill="#858585" fill-rule="evenodd"/><path d="M1145.83 2145.17 1145.83 413.664C1145.83 408.603 1149.93 404.5 1154.99 404.5L1415.34 404.5C1420.4 404.5 1424.5 408.603 1424.5 413.664 1424.5 418.726 1420.4 422.829 1415.34 422.829L1406.17 422.829 1406.17 2154.34C1406.17 2159.4 1402.07 2163.5 1397.01 2163.5L1136.66 2163.5C1131.6 2163.5 1127.5 2159.4 1127.5 2154.34 1127.5 2149.27 1131.6 2145.17 1136.66 2145.17ZM1154.99 404.5C1160.05 404.5 1164.16 408.603 1164.16 413.664 1164.16 418.726 1160.05 422.829 1154.99 422.829 1152.46 422.829 1150.41 420.777 1150.41 418.247 1150.41 415.716 1152.46 413.664 1154.99 413.664L1164.16 413.664M1406.17 422.829 1154.99 422.829M1136.66 2145.17C1139.2 2145.17 1141.25 2147.22 1141.25 2149.75 1141.25 2152.28 1139.2 2154.34 1136.66 2154.34L1145.83 2154.34M1136.66 2163.5C1141.73 2163.5 1145.83 2159.4 1145.83 2154.34L1145.83 2145.17" stroke="#434343" stroke-width="4.58333" stroke-miterlimit="8" fill="none" fill-rule="evenodd"/><text fill="#FFFFFF" font-family="Consolas,Consolas_MSFontService,sans-serif" font-weight="400" font-size="50" transform="matrix(1 0 0 1 1178.61 1276)">package</text><text fill="#FFFFFF" font-family="Consolas,Consolas_MSFontService,sans-serif" font-weight="400" font-size="50" transform="matrix(1 0 0 1 1178.61 1336)">.json</text><text font-family="Calibri,Calibri_MSFontService,sans-serif" font-weight="400" font-size="220" transform="matrix(1 0 0 1 1918.76 260)">2.</text><text font-family="Calibri,Calibri_MSFontService,sans-serif" font-weight="400" font-size="220" transform="matrix(1 0 0 1 216.45 260)">1.</text><text font-family="Calibri,Calibri_MSFontService,sans-serif" font-weight="400" font-size="220" transform="matrix(1 0 0 1 3571.89 260)">3.</text><path d="M667.781 557.844 1127.08 557.844 1127.08 568.157 667.781 568.156ZM672.938 578.469 642 563 672.938 547.531Z" fill="#5B9BD5"/><path d="M667.781 1323.84 1127.08 1323.84 1127.08 1334.16 667.781 1334.16ZM672.938 1344.47 642 1329 672.938 1313.53Z" fill="#ED7D31"/><path d="M667.781 2012.84 1127.08 2012.84 1127.08 2023.16 667.781 2023.16ZM672.938 2033.47 642 2018 672.938 2002.53Z" fill="#70AD47"/><text font-family="Consolas,Consolas_MSFontService,sans-serif" font-weight="400" font-size="48" transform="matrix(1 0 0 1 696.614 526)">exports.themes</text><text font-family="Consolas,Consolas_MSFontService,sans-serif" font-weight="400" font-size="48" transform="matrix(1 0 0 1 671.495 1296)">exports.snippets</text><text font-family="Consolas,Consolas_MSFontService,sans-serif" font-weight="400" font-size="48" transform="matrix(1 0 0 1 688.343 1985)">exports.widgets</text><path d="M3559.68 2163.5C3570.82 2163.5 3579.86 2154.47 3579.86 2143.32L3559.68 2143.32C3565.25 2143.32 3569.77 2138.8 3569.77 2133.23 3569.77 2127.66 3565.25 2123.14 3559.68 2123.14L3579.86 2123.14 3579.86 424.679C3579.86 413.535 3588.89 404.5 3600.04 404.5L4173.32 404.5C4184.47 404.5 4193.5 413.535 4193.5 424.679 4193.5 435.824 4184.47 444.859 4173.32 444.859L4153.14 444.859 4153.14 2143.32C4153.14 2154.47 4144.11 2163.5 4132.96 2163.5ZM3620.22 424.679C3620.22 435.824 3611.18 444.859 3600.04 444.859 3594.47 444.859 3589.95 440.341 3589.95 434.769 3589.95 429.197 3594.47 424.679 3600.04 424.679Z" fill="#FFC000" fill-rule="evenodd"/><path d="M3620.22 424.679C3620.22 435.824 3611.18 444.859 3600.04 444.859 3594.47 444.859 3589.95 440.341 3589.95 434.769 3589.95 429.197 3594.47 424.679 3600.04 424.679ZM3579.86 2143.32C3579.86 2154.47 3570.82 2163.5 3559.68 2163.5 3548.53 2163.5 3539.5 2154.47 3539.5 2143.32 3539.5 2132.18 3548.53 2123.14 3559.68 2123.14 3565.25 2123.14 3569.77 2127.66 3569.77 2133.23 3569.77 2138.8 3565.25 2143.32 3559.68 2143.32Z" fill="#CD9A00" fill-rule="evenodd"/><path d="M3579.86 2123.14 3579.86 424.679C3579.86 413.535 3588.89 404.5 3600.04 404.5L4173.32 404.5C4184.47 404.5 4193.5 413.535 4193.5 424.679 4193.5 435.824 4184.47 444.859 4173.32 444.859L4153.14 444.859 4153.14 2143.32C4153.14 2154.47 4144.11 2163.5 4132.96 2163.5L3559.68 2163.5C3548.53 2163.5 3539.5 2154.47 3539.5 2143.32 3539.5 2132.18 3548.53 2123.14 3559.68 2123.14ZM3600.04 404.5C3611.18 404.5 3620.22 413.535 3620.22 424.679 3620.22 435.824 3611.18 444.859 3600.04 444.859 3594.47 444.859 3589.95 440.341 3589.95 434.769 3589.95 429.197 3594.47 424.679 3600.04 424.679L3620.22 424.679M4153.14 444.859 3600.04 444.859M3559.68 2123.14C3565.25 2123.14 3569.77 2127.66 3569.77 2133.23 3569.77 2138.8 3565.25 2143.32 3559.68 2143.32L3579.86 2143.32M3559.68 2163.5C3570.82 2163.5 3579.86 2154.47 3579.86 2143.32L3579.86 2123.14" stroke="#6C4F00" stroke-width="4.58333" stroke-miterlimit="8" fill="none" fill-rule="evenodd"/><text fill="#FFFFFF" font-family="Consolas,Consolas_MSFontService,sans-serif" font-weight="700" font-size="50" transform="matrix(1 0 0 1 3612.23 1281)">explorable</text><text fill="#FFFFFF" font-family="Consolas,Consolas_MSFontService,sans-serif" font-weight="700" font-size="50" transform="matrix(1 0 0 1 3612.23 1341)">.html</text><path d="M1956.5 936.5 2209.5 936.5 2209.5 1062.41C2083 1062.41 2083 1110.38 1956.5 1083.12Z" stroke="#64310F" stroke-width="4.58333" stroke-miterlimit="8" fill="#ED7D31" fill-rule="evenodd"/><text fill="#FFFFFF" font-family="Calibri,Calibri_MSFontService,sans-serif" font-weight="400" font-size="55" transform="matrix(1 0 0 1 1997.81 1017)">Snippet</text><path d="M1989.5 1289.5 2242.5 1289.5 2242.5 1416.21C2116 1416.21 2116 1464.48 1989.5 1437.05Z" stroke="#64310F" stroke-width="4.58333" stroke-miterlimit="8" fill="#ED7D31" fill-rule="evenodd"/><text fill="#FFFFFF" font-family="Calibri,Calibri_MSFontService,sans-serif" font-weight="400" font-size="55" transform="matrix(1 0 0 1 2030.74 1371)">Snippet</text><path d="M1956.5 1263.5 2209.5 1263.5 2209.5 1390.21C2083 1390.21 2083 1438.48 1956.5 1411.05Z" stroke="#64310F" stroke-width="4.58333" stroke-miterlimit="8" fill="#ED7D31" fill-rule="evenodd"/><text fill="#FFFFFF" font-family="Calibri,Calibri_MSFontService,sans-serif" font-weight="400" font-size="55" transform="matrix(1 0 0 1 1997.81 1345)">Snippet</text><path d="M1343.68 447.5 1576.32 447.5C1606.79 447.5 1631.5 562.339 1631.5 704 1631.5 845.661 1606.79 960.5 1576.32 960.5L1343.68 960.5C1313.21 960.5 1288.5 845.661 1288.5 704 1288.5 562.339 1313.21 447.5 1343.68 447.5Z" stroke="#434343" stroke-width="4.58333" stroke-miterlimit="8" fill="#A5A5A5" fill-rule="evenodd"/><text fill="#FFFFFF" font-family="Consolas,Consolas_MSFontService,sans-serif" font-weight="400" font-size="55" transform="matrix(1 0 0 1 1399.04 549)">name</text><text fill="#FFFFFF" font-family="Consolas,Consolas_MSFontService,sans-serif" font-weight="400" font-size="55" transform="matrix(1 0 0 1 1353.48 642)">version</text><text fill="#FFFFFF" font-family="Consolas,Consolas_MSFontService,sans-serif" font-weight="400" font-size="55" transform="matrix(1 0 0 1 1353.48 736)">exports</text><text fill="#FFFFFF" font-family="Consolas,Consolas_MSFontService,sans-serif" font-weight="400" font-size="55" transform="matrix(1 0 0 1 1353.48 829)">editing</text><text fill="#FFFFFF" font-family="Consolas,Consolas_MSFontService,sans-serif" font-weight="400" font-size="55" transform="matrix(1 0 0 1 1368.68 895)">Config</text><path d="M0 219 158.6 0 793 0 793 1095 0 1095Z" stroke="#6C4F00" stroke-width="4.58333" stroke-miterlimit="8" fill="#FFC000" fill-rule="evenodd" transform="matrix(-1 0 0 1 3192.5 811.5)"/><text fill="#FFFFFF" font-family="Consolas,Consolas_MSFontService,sans-serif" font-weight="700" font-size="50" transform="matrix(1 0 0 1 2432.37 1455)">explorable</text><text fill="#FFFFFF" font-family="Consolas,Consolas_MSFontService,sans-serif" font-weight="700" font-size="50" transform="matrix(1 0 0 1 2432.37 1515)">[DOM]</text><path d="M2421.04 2134.5C2423.54 2134.5 2425.57 2132.47 2425.57 2129.96L2421.04 2129.96C2422.29 2129.96 2423.3 2128.95 2423.3 2127.7 2423.3 2126.44 2422.29 2125.43 2421.04 2125.43L2425.57 2125.43 2425.57 1992.04C2425.57 1989.53 2427.6 1987.5 2430.11 1987.5L2782.96 1987.5C2785.47 1987.5 2787.5 1989.53 2787.5 1992.04 2787.5 1994.54 2785.47 1996.57 2782.96 1996.57L2778.43 1996.57 2778.43 2129.96C2778.43 2132.47 2776.4 2134.5 2773.89 2134.5ZM2434.64 1992.04C2434.64 1994.54 2432.61 1996.57 2430.11 1996.57 2428.85 1996.57 2427.84 1995.56 2427.84 1994.3 2427.84 1993.05 2428.85 1992.04 2430.11 1992.04Z" fill="#FFC000" fill-rule="evenodd"/><path d="M2434.64 1992.04C2434.64 1994.54 2432.61 1996.57 2430.11 1996.57 2428.85 1996.57 2427.84 1995.56 2427.84 1994.3 2427.84 1993.05 2428.85 1992.04 2430.11 1992.04ZM2425.57 2129.96C2425.57 2132.47 2423.54 2134.5 2421.04 2134.5 2418.53 2134.5 2416.5 2132.47 2416.5 2129.96 2416.5 2127.46 2418.53 2125.43 2421.04 2125.43 2422.29 2125.43 2423.3 2126.44 2423.3 2127.7 2423.3 2128.95 2422.29 2129.96 2421.04 2129.96Z" fill="#CD9A00" fill-rule="evenodd"/><path d="M2425.57 2125.43 2425.57 1992.04C2425.57 1989.53 2427.6 1987.5 2430.11 1987.5L2782.96 1987.5C2785.47 1987.5 2787.5 1989.53 2787.5 1992.04 2787.5 1994.54 2785.47 1996.57 2782.96 1996.57L2778.43 1996.57 2778.43 2129.96C2778.43 2132.47 2776.4 2134.5 2773.89 2134.5L2421.04 2134.5C2418.53 2134.5 2416.5 2132.47 2416.5 2129.96 2416.5 2127.46 2418.53 2125.43 2421.04 2125.43ZM2430.11 1987.5C2432.61 1987.5 2434.64 1989.53 2434.64 1992.04 2434.64 1994.54 2432.61 1996.57 2430.11 1996.57 2428.85 1996.57 2427.84 1995.56 2427.84 1994.3 2427.84 1993.05 2428.85 1992.04 2430.11 1992.04L2434.64 1992.04M2778.43 1996.57 2430.11 1996.57M2421.04 2125.43C2422.29 2125.43 2423.3 2126.44 2423.3 2127.7 2423.3 2128.95 2422.29 2129.96 2421.04 2129.96L2425.57 2129.96M2421.04 2134.5C2423.54 2134.5 2425.57 2132.47 2425.57 2129.96L2425.57 2125.43" stroke="#6C4F00" stroke-width="4.58333" stroke-miterlimit="8" fill="none" fill-rule="evenodd"/><text fill="#FFFFFF" font-family="Consolas,Consolas_MSFontService,sans-serif" font-weight="400" font-size="50" transform="matrix(1 0 0 1 2458.5 2080)">bundle.js</text><path d="M2806.04 2133.5C2808.54 2133.5 2810.57 2131.47 2810.57 2128.96L2806.04 2128.96C2807.29 2128.96 2808.3 2127.95 2808.3 2126.7 2808.3 2125.44 2807.29 2124.43 2806.04 2124.43L2810.57 2124.43 2810.57 1991.04C2810.57 1988.53 2812.6 1986.5 2815.11 1986.5L3167.96 1986.5C3170.47 1986.5 3172.5 1988.53 3172.5 1991.04 3172.5 1993.54 3170.47 1995.57 3167.96 1995.57L3163.43 1995.57 3163.43 2128.96C3163.43 2131.47 3161.4 2133.5 3158.89 2133.5ZM2819.64 1991.04C2819.64 1993.54 2817.61 1995.57 2815.11 1995.57 2813.85 1995.57 2812.84 1994.56 2812.84 1993.3 2812.84 1992.05 2813.85 1991.04 2815.11 1991.04Z" fill="#FFC000" fill-rule="evenodd"/><path d="M2819.64 1991.04C2819.64 1993.54 2817.61 1995.57 2815.11 1995.57 2813.85 1995.57 2812.84 1994.56 2812.84 1993.3 2812.84 1992.05 2813.85 1991.04 2815.11 1991.04ZM2810.57 2128.96C2810.57 2131.47 2808.54 2133.5 2806.04 2133.5 2803.53 2133.5 2801.5 2131.47 2801.5 2128.96 2801.5 2126.46 2803.53 2124.43 2806.04 2124.43 2807.29 2124.43 2808.3 2125.44 2808.3 2126.7 2808.3 2127.95 2807.29 2128.96 2806.04 2128.96Z" fill="#CD9A00" fill-rule="evenodd"/><path d="M2810.57 2124.43 2810.57 1991.04C2810.57 1988.53 2812.6 1986.5 2815.11 1986.5L3167.96 1986.5C3170.47 1986.5 3172.5 1988.53 3172.5 1991.04 3172.5 1993.54 3170.47 1995.57 3167.96 1995.57L3163.43 1995.57 3163.43 2128.96C3163.43 2131.47 3161.4 2133.5 3158.89 2133.5L2806.04 2133.5C2803.53 2133.5 2801.5 2131.47 2801.5 2128.96 2801.5 2126.46 2803.53 2124.43 2806.04 2124.43ZM2815.11 1986.5C2817.61 1986.5 2819.64 1988.53 2819.64 1991.04 2819.64 1993.54 2817.61 1995.57 2815.11 1995.57 2813.85 1995.57 2812.84 1994.56 2812.84 1993.3 2812.84 1992.05 2813.85 1991.04 2815.11 1991.04L2819.64 1991.04M3163.43 1995.57 2815.11 1995.57M2806.04 2124.43C2807.29 2124.43 2808.3 2125.44 2808.3 2126.7 2808.3 2127.95 2807.29 2128.96 2806.04 2128.96L2810.57 2128.96M2806.04 2133.5C2808.54 2133.5 2810.57 2131.47 2810.57 2128.96L2810.57 2124.43" stroke="#6C4F00" stroke-width="4.58333" stroke-miterlimit="8" fill="none" fill-rule="evenodd"/><text fill="#FFFFFF" font-family="Consolas,Consolas_MSFontService,sans-serif" font-weight="400" font-size="50" transform="matrix(1 0 0 1 2843 2080)">bundle.css</text><path d="M3252 811 3252 2163.01" stroke="#FFC000" stroke-width="13.75" stroke-miterlimit="8" fill="none" fill-rule="evenodd"/><path d="M3252 1539.12 3504.96 1539.13 3504.96 1552.88 3252 1552.87ZM3498.08 1525.38 3539.33 1546 3498.08 1566.63Z" fill="#FFC000"/><path d="M1759 0 1759 2475" stroke="#7F7F7F" stroke-width="13.75" stroke-miterlimit="8" stroke-dasharray="13.75 13.75" fill="none" fill-rule="evenodd"/><rect x="3316" y="1444" width="159" height="93.9999" fill="#FFFFFF"/><text font-family="Calibri,Calibri_MSFontService,sans-serif" font-weight="400" font-size="50" transform="matrix(1 0 0 1 3348.62 1508)">save</text><path d="M2468.5 609.5C2468.5 565.869 2525.14 530.5 2595 530.5 2637.17 530.5 2679.33 530.5 2721.5 530.5 2721.5 556.833 2721.5 583.167 2721.5 609.5 2721.5 653.13 2664.86 688.5 2595 688.5 2525.14 688.5 2468.5 653.13 2468.5 609.5Z" stroke="#223F59" stroke-width="4.58333" stroke-miterlimit="8" fill="#5B9BD5" fill-rule="evenodd"/><text fill="#FFFFFF" font-family="Calibri,Calibri_MSFontService,sans-serif" font-weight="400" font-size="55" transform="matrix(1 0 0 1 2517.29 627)">Theme</text><path d="M1888.5 498.135C2030.5 449.351 2172.5 546.919 2314.5 498.135L2314.5 708.865C2172.5 757.649 2030.5 660.081 1888.5 708.865Z" stroke="#434343" stroke-width="4.58333" stroke-miterlimit="8" fill="#A5A5A5" fill-rule="evenodd"/><text fill="#FFFFFF" font-family="Calibri,Calibri_MSFontService,sans-serif" font-weight="400" font-size="55" transform="matrix(1 0 0 1 2013.58 621)">Schema</text><path d="M1343.52 1637.5 1575.48 1637.5C1605.87 1637.5 1630.5 1752.56 1630.5 1894.5 1630.5 2036.44 1605.87 2151.5 1575.48 2151.5L1343.52 2151.5C1313.13 2151.5 1288.5 2036.44 1288.5 1894.5 1288.5 1752.56 1313.13 1637.5 1343.52 1637.5Z" stroke="#434343" stroke-width="4.58333" stroke-miterlimit="8" fill="#A5A5A5" fill-rule="evenodd"/><text fill="#FFFFFF" font-family="Consolas,Consolas_MSFontService,sans-serif" font-weight="400" font-size="55" transform="matrix(1 0 0 1 1352.77 1880)">exports</text><text fill="#FFFFFF" font-family="Consolas,Consolas_MSFontService,sans-serif" font-weight="400" font-size="55" transform="matrix(1 0 0 1 1337.6 1946)">.widgets</text><path d="M1630 2063.12 2363.2 2063.13 2363.2 2076.88 1630 2076.88ZM2356.32 2049.38 2397.57 2070 2356.32 2090.63Z" fill="#FFC000"/><path d="M1630 597.125 1820.36 597.125 1820.36 610.875 1630 610.875ZM1813.49 583.375 1854.74 604 1813.49 624.625Z" fill="#FFC000"/><rect x="1648" y="506" width="156" height="94.9999" fill="#FFFFFF"/><text font-family="Calibri,Calibri_MSFontService,sans-serif" font-weight="400" font-size="50" transform="matrix(1 0 0 1 1681.2 570)">load</text><rect x="1855" y="1969" width="156" height="93.9998" fill="#FFFFFF"/><text font-family="Calibri,Calibri_MSFontService,sans-serif" font-weight="400" font-size="50" transform="matrix(1 0 0 1 1888.14 2032)">load</text><path d="M2334.5 558.5 2361.5 558.5 2388.5 638.5 2361.5 718.5 2334.5 718.5 2361.5 638.5Z" stroke="#434343" stroke-width="4.58333" stroke-miterlimit="8" fill="#A5A5A5" fill-rule="evenodd"/><path d="M2194.5 739.5 2194.5 767 2114 794.5 2033.5 767 2033.5 739.5 2114 767Z" stroke="#434343" stroke-width="4.58333" stroke-miterlimit="8" fill="#A5A5A5" fill-rule="evenodd"/><rect x="2107.5" y="894.5" width="182" height="73.0002" stroke="#2B4719" stroke-width="4.58333" stroke-miterlimit="8" fill="#70AD47"/><text fill="#FFFFFF" font-family="Calibri,Calibri_MSFontService,sans-serif" font-weight="400" font-size="46" transform="matrix(1 0 0 1 2129.95 946)">Widget</text><rect x="2106.5" y="1221.5" width="182" height="73.0002" stroke="#2B4719" stroke-width="4.58333" stroke-miterlimit="8" fill="#70AD47"/><text fill="#FFFFFF" font-family="Calibri,Calibri_MSFontService,sans-serif" font-weight="400" font-size="46" transform="matrix(1 0 0 1 2129.12 1273)">Widget</text><path d="M1990.5 1632.5 2243.5 1632.5 2243.5 1759.21C2117 1759.21 2117 1807.49 1990.5 1780.05Z" stroke="#64310F" stroke-width="4.58333" stroke-miterlimit="8" fill="#ED7D31" fill-rule="evenodd"/><text fill="#FFFFFF" font-family="Calibri,Calibri_MSFontService,sans-serif" font-weight="400" font-size="55" transform="matrix(1 0 0 1 2031.94 1713)">Snippet</text><path d="M1957.5 1606.5 2210.5 1606.5 2210.5 1733.21C2084 1733.21 2084 1781.48 1957.5 1754.05Z" stroke="#64310F" stroke-width="4.58333" stroke-miterlimit="8" fill="#ED7D31" fill-rule="evenodd"/><text fill="#FFFFFF" font-family="Calibri,Calibri_MSFontService,sans-serif" font-weight="400" font-size="55" transform="matrix(1 0 0 1 1999.01 1687)">Snippet</text><rect x="2107.5" y="1564.5" width="182" height="73.0002" stroke="#2B4719" stroke-width="4.58333" stroke-miterlimit="8" fill="#70AD47"/><text fill="#FFFFFF" font-family="Calibri,Calibri_MSFontService,sans-serif" font-weight="400" font-size="46" transform="matrix(1 0 0 1 2130.33 1616)">Widget</text><path d="M2856.5 564.5 3109.5 564.5 3109.5 691.207C2983 691.207 2983 739.485 2856.5 712.055Z" stroke="#64310F" stroke-width="4.58333" stroke-miterlimit="8" fill="#ED7D31" fill-rule="evenodd"/><text fill="#FFFFFF" font-family="Calibri,Calibri_MSFontService,sans-serif" font-weight="400" font-size="55" transform="matrix(1 0 0 1 2897.53 646)">Snippet</text><path d="M2823.5 538.5 3076.5 538.5 3076.5 665.207C2950 665.207 2950 713.485 2823.5 686.054Z" stroke="#64310F" stroke-width="4.58333" stroke-miterlimit="8" fill="#ED7D31" fill-rule="evenodd"/><text fill="#FFFFFF" font-family="Calibri,Calibri_MSFontService,sans-serif" font-weight="400" font-size="55" transform="matrix(1 0 0 1 2864.59 619)">Snippet</text><g><g><g><path d="M105.333 49.3749C105.333 63.9184 93.5434 75.7082 78.9999 75.7082 64.4564 75.7082 52.6666 63.9184 52.6666 49.3749 52.6666 34.8315 64.4564 23.0416 78.9999 23.0416 93.5434 23.0416 105.333 34.8315 105.333 49.3749Z" transform="matrix(1 0 0 1 181 2242)"/><path d="M131.666 134.958 131.666 108.625C131.666 104.675 129.691 100.725 126.4 98.0915 119.158 92.1665 109.942 88.2165 100.725 85.5832 94.1415 83.6082 86.8999 82.2915 78.9999 82.2915 71.7582 82.2915 64.5166 83.6082 57.2749 85.5832 48.0583 88.2165 38.8416 92.8249 31.6 98.0915 28.3083 100.725 26.3333 104.675 26.3333 108.625L26.3333 134.958 131.666 134.958Z" transform="matrix(1 0 0 1 181 2242)"/></g></g></g><g><g><g><path d="M104.666 49.0624C104.666 63.5138 92.9513 75.229 78.4999 75.229 64.0484 75.229 52.3332 63.5138 52.3332 49.0624 52.3332 34.611 64.0484 22.8958 78.4999 22.8958 92.9513 22.8958 104.666 34.611 104.666 49.0624Z" transform="matrix(1 0 0 1.00637 1886 2242)"/><path d="M130.833 134.104 130.833 107.937C130.833 104.012 128.871 100.087 125.6 97.4707 118.404 91.5832 109.246 87.6582 100.087 85.0415 93.5457 83.079 86.3499 81.7707 78.4999 81.7707 71.304 81.7707 64.1082 83.079 56.9124 85.0415 47.7541 87.6582 38.5958 92.2373 31.3999 97.4707 28.1291 100.087 26.1666 104.012 26.1666 107.937L26.1666 134.104 130.833 134.104Z" transform="matrix(1 0 0 1.00637 1886 2242)"/></g></g></g><g><g><g><path d="M104.667 49.0625C104.667 63.514 92.9515 75.2292 78.5 75.2292 64.0486 75.2292 52.3334 63.514 52.3334 49.0625 52.3334 34.6111 64.0486 22.8958 78.5 22.8958 92.9515 22.8958 104.667 34.6111 104.667 49.0625Z" transform="matrix(1.00637 0 0 1 3521 2242)"/><path d="M130.833 134.104 130.833 107.938C130.833 104.013 128.871 100.088 125.6 97.4709 118.404 91.5834 109.246 87.6584 100.088 85.0417 93.5459 83.0792 86.3501 81.7709 78.5 81.7709 71.3042 81.7709 64.1084 83.0792 56.9125 85.0417 47.7542 87.6584 38.5959 92.2376 31.4 97.4709 28.1292 100.088 26.1667 104.013 26.1667 107.938L26.1667 134.104 130.833 134.104Z" transform="matrix(1.00637 0 0 1 3521 2242)"/></g></g></g><text font-family="Calibri,Calibri_MSFontService,sans-serif" font-weight="700" font-size="83" transform="matrix(1 0 0 1 362.325 2311)">Developer</text><text font-family="Calibri,Calibri_MSFontService,sans-serif" font-weight="400" font-size="50" transform="matrix(1 0 0 1 362.325 2380)">with a </text><text font-family="Calibri,Calibri_MSFontService,sans-serif" font-style="italic" font-weight="400" font-size="50" transform="matrix(1 0 0 1 499.825 2380)">text editor</text><text font-family="Calibri,Calibri_MSFontService,sans-serif" font-weight="700" font-size="83" transform="matrix(1 0 0 1 2066.78 2311)">Author</text><text font-family="Calibri,Calibri_MSFontService,sans-serif" font-weight="400" font-size="50" transform="matrix(1 0 0 1 2066.78 2380)">with </text><text font-family="Calibri,Calibri_MSFontService,sans-serif" font-style="italic" font-weight="400" font-size="50" transform="matrix(1 0 0 1 2168.76 2380)">WebWriter</text><text font-family="Calibri,Calibri_MSFontService,sans-serif" font-weight="700" font-size="83" transform="matrix(1 0 0 1 3692.55 2311)">Learner</text><text font-family="Calibri,Calibri_MSFontService,sans-serif" font-weight="400" font-size="50" transform="matrix(1 0 0 1 3692.55 2380)">with a </text><text font-family="Calibri,Calibri_MSFontService,sans-serif" font-style="italic" font-weight="400" font-size="50" transform="matrix(1 0 0 1 3830.05 2380)">browser</text></g></svg>