<svg width="20" height="20" fill="currentColor" class="bi bi-highlighter" viewBox="0 0 16 16" xmlns="http://www.w3.org/2000/svg">
  <path style="fill:#ffffff;stroke-width:0.0388979" d="M 12.979378,2.8366808 11.180665,1.1061689 11.312696,0.99938614 c 0.224798,-0.18180931 0.45821,-0.26011138 0.787279,-0.26410617 0.520565,-0.006315 0.605828,0.0505579 1.812273,1.20892583 1.20551,1.1574723 1.264697,1.239359 1.259768,1.7428933 -0.003,0.3118719 -0.08504,0.5291149 -0.285756,0.7571853 l -0.108172,0.1229081 z" id="path310" />
  <path style="fill:#ffffff;stroke-width:0.0327363" d="M 4.3293683,11.575933 C 2.3884046,9.6659098 2.3670623,9.6434959 2.4318197,9.5830841 2.4678415,9.5494798 4.3833896,7.8593211 6.6885933,5.827176 8.993797,3.795031 10.924803,2.0910543 10.97972,2.0405615 l 0.09985,-0.091804 1.524504,1.5011639 1.524504,1.501164 -3.894388,4.2701545 C 8.0922741,11.569823 6.329137,13.495058 6.316105,13.499537 6.3030731,13.504037 5.4090417,12.638394 4.3293683,11.575933 Z" id="path306" />
  <path style="fill:#ffffff;stroke-width:0.0401442" d="m 3.0376721,12.881037 -0.8289193,-0.721793 0.011549,-0.90713 0.011549,-0.907129 1.8721139,1.628923 1.8721139,1.628923 H 4.9213333 3.8665914 Z" id="path308" />
  <path fill-rule="evenodd" d="m 11.096,0.644 a 2,2 0 0 1 2.791,0.036 l 1.433,1.433 a 2,2 0 0 1 0.035,2.791 l -0.413,0.435 -8.07,8.995 A 0.5,0.5 0 0 1 6.5,14.5 h -3 A 0.5,0.5 0 0 1 3.266,14.442 L 2.854,14.854 A 0.5,0.5 0 0 1 2.5,15 h -2 A 0.5,0.5 0 0 1 0.146,14.146 L 1.558,12.734 A 0.5,0.5 0 0 1 1.5,12.5 v -3 A 0.5,0.5 0 0 1 1.666,9.128 l 8.995,-8.07 z M 10.981,2.114 2.727,9.52 6.48,13.273 13.886,5.019 Z m 3.585,2.17 0.064,-0.068 A 1,1 0 0 0 14.613,2.82 L 13.18,1.387 A 1,1 0 0 0 11.784,1.369 L 11.716,1.434 Z M 5.293,13.5 2.5,10.707 v 1.586 L 3.707,13.5 Z" id="path2" />
</svg>